# MagicaVoxel @ Ephtracy

# group
o 

# material
mtllib phone.mtl
usemtl palette

# normals
vn -1 0 0
vn 1 0 0
vn 0 0 1
vn 0 0 -1
vn 0 -1 0
vn 0 1 0

# texcoords
vt 0.962891 0.5
vt 0.986328 0.5

# verts
v -1.2 0 -1.6
v -1.2 0 -2
v -1.2 4 -1.6
v -1.2 4 -2
v 1 0.4 -1.6
v 1 0.4 -1.9
v 1 3.6 -1.6
v 1 3.6 -1.9
v -1.1 0.4 -1.6
v -1.1 0.4 -1.9
v -1.1 3.6 -1.6
v -1.1 3.6 -1.9
v 1.1 0 -1.6
v 1.1 0 -2
v 1.1 4 -1.6
v 1.1 4 -2
v -1.2 0 -1.6
v -1.2 4 -1.6
v -1.1 0.4 -1.6
v -1.1 3.6 -1.6
v -0.9 3.8 -1.6
v -0.9 3.9 -1.6
v -0.4 3.8 -1.6
v -0.4 3.9 -1.6
v -0.3 0.1 -1.6
v -0.3 0.3 -1.6
v -0.3 3.8 -1.6
v -0.3 3.9 -1.6
v -0.2 3.7 -1.6
v -0.2 3.8 -1.6
v -0.2 3.9 -1.6
v -0.1 3.8 -1.6
v -0.1 3.9 -1.6
v 0 3.8 -1.6
v 0 3.9 -1.6
v 0.0999999 3.7 -1.6
v 0.0999999 3.8 -1.6
v 0.0999999 3.9 -1.6
v 0.2 0.1 -1.6
v 0.2 0.3 -1.6
v 0.2 3.8 -1.6
v 0.2 3.9 -1.6
v 0.3 3.8 -1.6
v 0.3 3.9 -1.6
v 0.8 3.8 -1.6
v 0.8 3.9 -1.6
v 1 0.4 -1.6
v 1 3.6 -1.6
v 1.1 0 -1.6
v 1.1 4 -1.6
v -1.1 0.4 -1.9
v -1.1 3.6 -1.9
v 1 0.4 -1.9
v 1 3.6 -1.9
v -1.2 0 -2
v -1.2 4 -2
v 1.1 0 -2
v 1.1 4 -2
v -1.2 0 -1.6
v 1.1 0 -1.6
v -1.2 0 -2
v 1.1 0 -2
v -1.1 3.6 -1.6
v 1 3.6 -1.6
v -1.1 3.6 -1.9
v 1 3.6 -1.9
v -1.1 0.4 -1.6
v 1 0.4 -1.6
v -1.1 0.4 -1.9
v 1 0.4 -1.9
v -1.2 4 -1.6
v 1.1 4 -1.6
v -1.2 4 -2
v 1.1 4 -2

# faces
f 3/2/1 2/2/1 1/2/1
f 4/2/1 2/2/1 3/2/1
f 7/2/1 6/2/1 5/2/1
f 8/2/1 6/2/1 7/2/1
f 9/2/2 10/2/2 11/2/2
f 11/2/2 10/2/2 12/2/2
f 13/2/2 14/2/2 15/2/2
f 15/2/2 14/2/2 16/2/2
f 19/2/3 18/2/3 17/2/3
f 20/2/3 18/2/3 19/2/3
f 21/2/3 18/2/3 20/2/3
f 22/2/3 18/2/3 21/2/3
f 23/2/3 21/2/3 20/2/3
f 23/1/3 22/1/3 21/1/3
f 24/2/3 18/2/3 22/2/3
f 24/1/3 22/1/3 23/1/3
f 25/2/3 19/2/3 17/2/3
f 26/2/3 19/2/3 25/2/3
f 27/2/3 23/2/3 20/2/3
f 27/2/3 24/2/3 23/2/3
f 28/2/3 18/2/3 24/2/3
f 28/2/3 24/2/3 27/2/3
f 29/2/3 27/2/3 20/2/3
f 30/1/3 28/1/3 27/1/3
f 30/2/3 27/2/3 29/2/3
f 31/2/3 18/2/3 28/2/3
f 31/1/3 28/1/3 30/1/3
f 32/1/3 30/1/3 29/1/3
f 32/2/3 31/2/3 30/2/3
f 33/2/3 18/2/3 31/2/3
f 33/2/3 31/2/3 32/2/3
f 34/1/3 32/1/3 29/1/3
f 34/1/3 33/1/3 32/1/3
f 35/2/3 18/2/3 33/2/3
f 35/1/3 33/1/3 34/1/3
f 36/1/3 34/1/3 29/1/3
f 36/2/3 29/2/3 20/2/3
f 37/2/3 35/2/3 34/2/3
f 37/1/3 34/1/3 36/1/3
f 38/2/3 18/2/3 35/2/3
f 38/2/3 35/2/3 37/2/3
f 39/1/3 26/1/3 25/1/3
f 39/2/3 25/2/3 17/2/3
f 40/2/3 19/2/3 26/2/3
f 40/1/3 26/1/3 39/1/3
f 41/2/3 37/2/3 36/2/3
f 41/1/3 38/1/3 37/1/3
f 42/2/3 18/2/3 38/2/3
f 42/1/3 38/1/3 41/1/3
f 43/2/3 41/2/3 36/2/3
f 43/2/3 42/2/3 41/2/3
f 44/2/3 18/2/3 42/2/3
f 44/2/3 42/2/3 43/2/3
f 45/2/3 43/2/3 36/2/3
f 45/1/3 44/1/3 43/1/3
f 46/2/3 18/2/3 44/2/3
f 46/1/3 44/1/3 45/1/3
f 47/2/3 19/2/3 40/2/3
f 47/2/3 40/2/3 39/2/3
f 48/2/3 45/2/3 36/2/3
f 48/2/3 46/2/3 45/2/3
f 48/2/3 36/2/3 20/2/3
f 49/2/3 39/2/3 17/2/3
f 49/2/3 48/2/3 47/2/3
f 49/2/3 47/2/3 39/2/3
f 50/2/3 18/2/3 46/2/3
f 50/2/3 48/2/3 49/2/3
f 50/2/3 46/2/3 48/2/3
f 53/2/3 52/2/3 51/2/3
f 54/2/3 52/2/3 53/2/3
f 55/2/4 56/2/4 57/2/4
f 57/2/4 56/2/4 58/2/4
f 61/2/5 60/2/5 59/2/5
f 62/2/5 60/2/5 61/2/5
f 65/2/5 64/2/5 63/2/5
f 66/2/5 64/2/5 65/2/5
f 67/2/6 68/2/6 69/2/6
f 69/2/6 68/2/6 70/2/6
f 71/2/6 72/2/6 73/2/6
f 73/2/6 72/2/6 74/2/6
