# MagicaVoxel @ Ephtracy

# group
o 

# material
mtllib streetlamp.mtl
usemtl palette

# normals
vn -1 0 0
vn 1 0 0
vn 0 0 1
vn 0 0 -1
vn 0 -1 0
vn 0 1 0

# texcoords
vt 0.00195313 0.5
vt 0.990234 0.5

# verts
v -0.1 0 0
v -0.1 0 -0.1
v -0.1 2.3 0.1
v -0.1 2.3 0
v -0.1 2.3 -0.1
v -0.1 2.3 -0.2
v -0.1 2.4 0.1
v -0.1 2.4 -0.2
v 0.1 2.2 0.1
v 0.1 2.2 0
v 0.1 2.2 -0.1
v 0.1 2.2 -0.2
v 0.1 2.3 0.1
v 0.1 2.3 0
v 0.1 2.3 -0.1
v 0.1 2.3 -0.2
v 0 0 0
v 0 0 -0.1
v 0 2.2 0
v 0 2.2 -0.1
v 0.4 2.2 0.1
v 0.4 2.2 -0.2
v 0.4 2.3 0.1
v 0.4 2.3 -0.2
v 0.4 2.4 0.1
v 0.4 2.4 -0.2
v -0.1 2.3 0.1
v -0.1 2.4 0.1
v 0.1 2.2 0.1
v 0.1 2.3 0.1
v 0.4 2.2 0.1
v 0.4 2.3 0.1
v 0.4 2.4 0.1
v -0.1 0 0
v -0.1 2.3 0
v 0 0 0
v 0 2.2 0
v 0 2.3 0
v 0.1 2.2 0
v 0.1 2.3 0
v -0.1 0 -0.1
v -0.1 2.3 -0.1
v 0 0 -0.1
v 0 2.2 -0.1
v 0 2.3 -0.1
v 0.1 2.2 -0.1
v 0.1 2.3 -0.1
v -0.1 2.3 -0.2
v -0.1 2.4 -0.2
v 0.1 2.2 -0.2
v 0.1 2.3 -0.2
v 0.4 2.2 -0.2
v 0.4 2.3 -0.2
v 0.4 2.4 -0.2
v -0.1 0 0
v 0 0 0
v -0.1 0 -0.1
v 0 0 -0.1
v 0.1 2.2 0.1
v 0.4 2.2 0.1
v 0 2.2 0
v 0.1 2.2 0
v 0 2.2 -0.1
v 0.1 2.2 -0.1
v 0.1 2.2 -0.2
v 0.4 2.2 -0.2
v -0.1 2.3 0.1
v 0.1 2.3 0.1
v -0.1 2.3 0
v 0 2.3 0
v 0.1 2.3 0
v -0.1 2.3 -0.1
v 0 2.3 -0.1
v 0.1 2.3 -0.1
v -0.1 2.3 -0.2
v 0.1 2.3 -0.2
v -0.1 2.4 0.1
v 0.4 2.4 0.1
v -0.1 2.4 -0.2
v 0.4 2.4 -0.2

# faces
f 4/2/1 2/2/1 1/2/1
f 5/2/1 2/2/1 4/2/1
f 7/2/1 4/2/1 3/2/1
f 7/2/1 6/2/1 5/2/1
f 7/2/1 5/2/1 4/2/1
f 8/2/1 6/2/1 7/2/1
f 13/1/1 10/1/1 9/1/1
f 14/1/1 10/1/1 13/1/1
f 15/1/1 12/1/1 11/1/1
f 16/1/1 12/1/1 15/1/1
f 17/2/2 18/2/2 19/2/2
f 19/2/2 18/2/2 20/2/2
f 21/1/2 22/1/2 23/1/2
f 23/1/2 22/1/2 24/1/2
f 23/2/2 24/2/2 25/2/2
f 25/2/2 24/2/2 26/2/2
f 30/2/3 28/2/3 27/2/3
f 31/1/3 30/1/3 29/1/3
f 32/2/3 28/2/3 30/2/3
f 32/1/3 30/1/3 31/1/3
f 33/2/3 28/2/3 32/2/3
f 36/2/3 35/2/3 34/2/3
f 37/2/3 35/2/3 36/2/3
f 38/2/3 35/2/3 37/2/3
f 39/1/3 38/1/3 37/1/3
f 40/1/3 38/1/3 39/1/3
f 41/2/4 42/2/4 43/2/4
f 43/2/4 42/2/4 44/2/4
f 44/2/4 42/2/4 45/2/4
f 44/1/4 45/1/4 46/1/4
f 46/1/4 45/1/4 47/1/4
f 48/2/4 49/2/4 51/2/4
f 50/1/4 51/1/4 52/1/4
f 51/2/4 49/2/4 53/2/4
f 52/1/4 51/1/4 53/1/4
f 53/2/4 49/2/4 54/2/4
f 57/2/5 56/2/5 55/2/5
f 58/2/5 56/2/5 57/2/5
f 62/1/5 60/1/5 59/1/5
f 63/1/5 62/1/5 61/1/5
f 64/1/5 60/1/5 62/1/5
f 64/1/5 62/1/5 63/1/5
f 65/1/5 60/1/5 64/1/5
f 66/1/5 60/1/5 65/1/5
f 69/2/5 68/2/5 67/2/5
f 70/2/5 68/2/5 69/2/5
f 71/2/5 68/2/5 70/2/5
f 75/2/5 73/2/5 72/2/5
f 75/2/5 74/2/5 73/2/5
f 76/2/5 74/2/5 75/2/5
f 77/2/6 78/2/6 79/2/6
f 79/2/6 78/2/6 80/2/6
